<mxfile host="app.diagrams.net" agent="Mozilla/5.0 (Windows NT 10.0; Win64; x64) AppleWebKit/537.36 (KHTML, like Gecko) Chrome/127.0.0.0 Safari/537.36" version="24.7.7">
  <diagram name="Page-1" id="fD2VVwc9iAGTrpkyW7kg">
    <mxGraphModel dx="1323" dy="687" grid="1" gridSize="10" guides="1" tooltips="1" connect="1" arrows="1" fold="1" page="1" pageScale="1" pageWidth="1169" pageHeight="1654" math="0" shadow="0">
      <root>
        <mxCell id="0" />
        <mxCell id="1" parent="0" />
        <mxCell id="8rUYcdICtSL9xnGAsBRD-2" value="&lt;font style=&quot;font-size: 34px;&quot;&gt;Don Keogh&#39;s Ten Commandments for Business Failure&lt;/font&gt;" style="text;html=1;align=center;verticalAlign=middle;whiteSpace=wrap;rounded=0;" vertex="1" parent="1">
          <mxGeometry x="200" y="30" width="840" height="30" as="geometry" />
        </mxCell>
        <mxCell id="8rUYcdICtSL9xnGAsBRD-3" value="&lt;strong style=&quot;font-size: 24px; background-color: initial;&quot;&gt;10. Be Afraid of the Future&lt;/strong&gt;&lt;br style=&quot;font-size: 24px;&quot;&gt;&lt;span style=&quot;background-color: initial; font-size: 24px;&quot;&gt;Fear change and avoid preparing for the future, leading to obsolescence.&lt;/span&gt;" style="text;html=1;align=center;verticalAlign=middle;whiteSpace=wrap;rounded=0;fontSize=24;" vertex="1" parent="1">
          <mxGeometry x="100" y="1050" width="1000" height="110" as="geometry" />
        </mxCell>
        <mxCell id="8rUYcdICtSL9xnGAsBRD-4" value="&lt;strong style=&quot;font-size: 24px; background-color: initial;&quot;&gt;9. Send Mixed Messages&lt;/strong&gt;&lt;br style=&quot;font-size: 24px;&quot;&gt;&lt;span style=&quot;background-color: initial; font-size: 24px;&quot;&gt;Be inconsistent in communication, leadership, or values, creating confusion and uncertainty.&lt;/span&gt;" style="text;html=1;align=center;verticalAlign=middle;whiteSpace=wrap;rounded=0;fontSize=24;" vertex="1" parent="1">
          <mxGeometry x="100" y="950" width="1000" height="110" as="geometry" />
        </mxCell>
        <mxCell id="8rUYcdICtSL9xnGAsBRD-5" value="&lt;strong style=&quot;font-size: 24px; background-color: initial;&quot;&gt;8. Love Your Bureaucracy&lt;/strong&gt;&lt;br style=&quot;font-size: 24px;&quot;&gt;&lt;span style=&quot;background-color: initial; font-size: 24px;&quot;&gt;Allow red tape and rigid processes to dominate the organization, slowing down decision-making and innovation.&lt;/span&gt;" style="text;html=1;align=center;verticalAlign=middle;whiteSpace=wrap;rounded=0;fontSize=24;" vertex="1" parent="1">
          <mxGeometry x="100" y="840" width="1000" height="110" as="geometry" />
        </mxCell>
        <mxCell id="8rUYcdICtSL9xnGAsBRD-6" value="&lt;p style=&quot;font-size: 24px; background-color: initial; display: inline !important;&quot;&gt;&lt;strong style=&quot;font-size: 24px;&quot;&gt;7. Put All Your Faith in Experts and Outside Consultants&lt;br style=&quot;font-size: 24px;&quot;&gt;&lt;/strong&gt;&lt;/p&gt;&lt;span style=&quot;background-color: initial; font-size: 24px;&quot;&gt;Over-rely on outside advice instead of trusting your own knowledge and instincts.&lt;/span&gt;" style="text;html=1;align=center;verticalAlign=middle;whiteSpace=wrap;rounded=0;fontSize=24;" vertex="1" parent="1">
          <mxGeometry x="100" y="730" width="1000" height="110" as="geometry" />
        </mxCell>
        <mxCell id="8rUYcdICtSL9xnGAsBRD-7" value="&lt;strong style=&quot;font-size: 24px; background-color: initial;&quot;&gt;6. Don&#39;t Take Time to Think&lt;/strong&gt;&lt;div style=&quot;font-size: 24px;&quot;&gt;&lt;span style=&quot;background-color: initial; font-size: 24px;&quot;&gt;Avoid reflection, strategic planning, and critical thinking, acting impulsively instead.&lt;/span&gt;&lt;/div&gt;" style="text;html=1;align=center;verticalAlign=middle;whiteSpace=wrap;rounded=0;fontSize=24;" vertex="1" parent="1">
          <mxGeometry x="100" y="630" width="1000" height="110" as="geometry" />
        </mxCell>
        <mxCell id="8rUYcdICtSL9xnGAsBRD-8" value="&lt;p style=&quot;font-size: 24px; background-color: initial; display: inline !important;&quot;&gt;&lt;strong style=&quot;font-size: 24px;&quot;&gt;5. Play the Game Close to the Foul Line&lt;br style=&quot;font-size: 24px;&quot;&gt;&lt;/strong&gt;&lt;/p&gt;&lt;span style=&quot;background-color: initial; font-size: 24px;&quot;&gt;Push ethical boundaries or operate in a questionable manner, thinking short-term gains are worth it.&lt;/span&gt;" style="text;html=1;align=center;verticalAlign=middle;whiteSpace=wrap;rounded=0;fontSize=24;" vertex="1" parent="1">
          <mxGeometry x="100" y="540" width="1000" height="110" as="geometry" />
        </mxCell>
        <mxCell id="8rUYcdICtSL9xnGAsBRD-9" value="&lt;p style=&quot;font-size: 24px; background-color: initial; display: inline !important;&quot;&gt;&lt;strong style=&quot;font-size: 24px;&quot;&gt;4. Assume Infallibility&lt;br style=&quot;font-size: 24px;&quot;&gt;&lt;/strong&gt;&lt;/p&gt;&lt;span style=&quot;background-color: initial; font-size: 24px;&quot;&gt;Believe that you can do no wrong and never admit to mistakes.&lt;/span&gt;" style="text;html=1;align=center;verticalAlign=middle;whiteSpace=wrap;rounded=0;fontSize=24;" vertex="1" parent="1">
          <mxGeometry x="100" y="398" width="1000" height="110" as="geometry" />
        </mxCell>
        <mxCell id="8rUYcdICtSL9xnGAsBRD-10" value="&lt;p style=&quot;font-size: 24px; background-color: initial; display: inline !important;&quot;&gt;&lt;strong style=&quot;font-size: 24px;&quot;&gt;3. Isolate Yourself&lt;br style=&quot;font-size: 24px;&quot;&gt;&lt;/strong&gt;&lt;/p&gt;&lt;span style=&quot;background-color: initial; font-size: 24px;&quot;&gt;Stay disconnected from your employees, customers, and competitors.&lt;/span&gt;" style="text;html=1;align=center;verticalAlign=middle;whiteSpace=wrap;rounded=0;fontSize=24;" vertex="1" parent="1">
          <mxGeometry x="100" y="300" width="1000" height="110" as="geometry" />
        </mxCell>
        <mxCell id="8rUYcdICtSL9xnGAsBRD-11" value="&lt;font style=&quot;font-size: 24px;&quot;&gt;&lt;p style=&quot;background-color: initial; font-size: 24px; display: inline !important;&quot;&gt;&lt;strong style=&quot;font-size: 24px;&quot;&gt;2. Quit Taking Risks&lt;br style=&quot;font-size: 24px;&quot;&gt;&lt;/strong&gt;&lt;/p&gt;&lt;span style=&quot;background-color: initial; font-size: 24px;&quot;&gt;Stop innovating and taking calculated risks, leading to stagnation.&lt;/span&gt;&lt;/font&gt;" style="text;html=1;align=center;verticalAlign=middle;whiteSpace=wrap;rounded=0;fontSize=24;" vertex="1" parent="1">
          <mxGeometry x="100" y="210" width="1000" height="110" as="geometry" />
        </mxCell>
        <mxCell id="8rUYcdICtSL9xnGAsBRD-12" value="&lt;p style=&quot;font-size: 24px; background-color: initial; display: inline !important;&quot;&gt;&lt;strong style=&quot;font-size: 24px;&quot;&gt;1. Be Inflexible&lt;/strong&gt;&lt;/p&gt;&lt;ul style=&quot;font-size: 24px; background-color: initial;&quot;&gt;&lt;li style=&quot;font-size: 24px;&quot;&gt;Refuse to adapt to changes in the market, new ideas, or shifts in consumer behavior.&lt;/li&gt;&lt;/ul&gt;" style="text;html=1;align=center;verticalAlign=middle;whiteSpace=wrap;rounded=0;fontSize=24;" vertex="1" parent="1">
          <mxGeometry x="100" y="110" width="1000" height="110" as="geometry" />
        </mxCell>
        <mxCell id="8rUYcdICtSL9xnGAsBRD-13" value="&lt;strong style=&quot;font-size: 24px; background-color: initial;&quot;&gt;11. Lose Your Passion&lt;/strong&gt;&lt;br style=&quot;font-size: 24px;&quot;&gt;&lt;span style=&quot;background-color: initial; font-size: 24px;&quot;&gt;This implies that when leaders lose passion for their business, it leads to complacency, lack of inspiration, and ultimately, failure. Passion drives innovation, motivation, and resilience, and losing it can doom a business.&lt;/span&gt;" style="text;html=1;align=center;verticalAlign=middle;whiteSpace=wrap;rounded=0;fontSize=24;" vertex="1" parent="1">
          <mxGeometry x="100" y="1270" width="1000" height="110" as="geometry" />
        </mxCell>
      </root>
    </mxGraphModel>
  </diagram>
</mxfile>
